<svg width="24" height="24" viewBox="0 0 24 24" fill="none" xmlns="http://www.w3.org/2000/svg">
<g clip-path="url(#clip0_412_136)">
<path d="M17.25 8C17.6642 8 18 8.33579 18 8.75V19C18 19.5177 17.6067 19.9438 17.1025 19.9951L17 20H7L6.89746 19.9951C6.39333 19.9438 6 19.5177 6 19V8.75C6 8.33579 6.33579 8 6.75 8C7.16421 8 7.5 8.33579 7.5 8.75V17.5C7.5 18.0523 7.94772 18.5 8.5 18.5H15.5C16.0523 18.5 16.5 18.0523 16.5 17.5V8.75C16.5 8.33579 16.8358 8 17.25 8ZM14.9316 4C15.0231 4.00002 15.1076 4.0505 15.1514 4.13086L15.8975 5.5H19C19.4142 5.5 19.75 5.83579 19.75 6.25C19.75 6.66421 19.4142 7 19 7H5C4.58579 7 4.25 6.66421 4.25 6.25C4.25 5.83579 4.58579 5.5 5 5.5H8.07129L8.81738 4.13086C8.86116 4.0505 8.9456 4.00002 9.03711 4H14.9316Z" fill="#753D8F"/>
</g>
<defs>
<clipPath id="clip0_412_136">
<rect width="24" height="24" fill="white"/>
</clipPath>
</defs>
</svg>
