<svg width="29" height="24" viewBox="0 0 29 24" fill="none" xmlns="http://www.w3.org/2000/svg">
<path d="M11.3892 13.4174L10.6499 13.2907L11.3892 13.4174ZM11.4885 17.5959L11.8375 18.2598L11.4885 17.5959ZM10.763 17.0689L10.0238 16.9421L10.763 17.0689ZM15.2329 15.8722L15.5818 15.2083L15.2329 15.8722ZM14.7675 15.8722L14.4186 15.2083L14.7675 15.8722ZM19.2372 17.0687L19.9764 16.9418L19.2372 17.0687ZM18.5117 17.5958L18.1627 18.2597L18.5117 17.5958ZM18.7544 12.9755L19.2779 13.5125L18.7544 12.9755ZM18.6106 13.4181L17.8714 13.545L18.6106 13.4181ZM21.1302 9.53647L21.238 8.79427L21.1302 9.53647ZM21.4073 10.3893L21.9308 10.9264L21.9308 10.9264L21.4073 10.3893ZM17.0881 8.73033L16.4155 9.06224L17.0881 8.73033ZM17.4645 9.00386L17.5724 8.26165L17.4645 9.00386ZM12.9123 8.73036L12.2398 8.39845L12.9123 8.73036ZM12.9123 8.73036L13.5849 9.06227L15.2244 5.74014L14.5518 5.40823L13.8793 5.07632L12.2398 8.39845L12.9123 8.73036ZM15.4486 5.40823L14.776 5.74014L16.4155 9.06224L17.0881 8.73033L17.7606 8.39842L16.1211 5.07632L15.4486 5.40823ZM17.4645 9.00386L17.3567 9.74606L21.0223 10.2787L21.1302 9.53647L21.238 8.79427L17.5724 8.26165L17.4645 9.00386ZM21.4073 10.3893L20.8838 9.85226L18.2308 12.4384L18.7544 12.9755L19.2779 13.5125L21.9308 10.9264L21.4073 10.3893ZM18.6106 13.4181L17.8714 13.545L18.498 17.1956L19.2372 17.0687L19.9764 16.9418L19.3498 13.2912L18.6106 13.4181ZM18.5117 17.5958L18.8607 16.932L15.5818 15.2083L15.2329 15.8722L14.8839 16.536L18.1627 18.2597L18.5117 17.5958ZM14.7675 15.8722L14.4186 15.2083L11.1395 16.9321L11.4885 17.5959L11.8375 18.2598L15.1165 16.536L14.7675 15.8722ZM10.763 17.0689L11.5023 17.1956L12.1284 13.5442L11.3892 13.4174L10.6499 13.2907L10.0238 16.9421L10.763 17.0689ZM11.2453 12.9748L11.7687 12.4377L9.11605 9.85278L8.59262 10.3899L8.0692 10.9271L10.7219 13.512L11.2453 12.9748ZM8.86962 9.53703L8.97755 10.2792L12.6438 9.74608L12.5359 9.00388L12.428 8.26169L8.76169 8.79484L8.86962 9.53703ZM8.59262 10.3899L9.11605 9.85278C9.26445 9.99739 9.18261 10.2494 8.97755 10.2792L8.86962 9.53703L8.76169 8.79484C7.7364 8.94394 7.32717 10.204 8.0692 10.9271L8.59262 10.3899ZM11.3892 13.4174L12.1284 13.5442C12.1979 13.1386 12.0634 12.7248 11.7687 12.4377L11.2453 12.9748L10.7219 13.512C10.6629 13.4545 10.636 13.3718 10.6499 13.2907L11.3892 13.4174ZM11.4885 17.5959L11.1395 16.9321C11.3229 16.8357 11.5373 16.9914 11.5023 17.1956L10.763 17.0689L10.0238 16.9421C9.84874 17.9632 10.9205 18.7419 11.8375 18.2598L11.4885 17.5959ZM15.2329 15.8722L15.5818 15.2083C15.2177 15.0169 14.7827 15.0169 14.4186 15.2083L14.7675 15.8722L15.1165 16.536C15.0437 16.5743 14.9567 16.5743 14.8839 16.536L15.2329 15.8722ZM19.2372 17.0687L18.498 17.1956C18.4629 16.9913 18.6773 16.8356 18.8607 16.932L18.5117 17.5958L18.1627 18.2597C19.0798 18.7418 20.1516 17.963 19.9764 16.9418L19.2372 17.0687ZM18.7544 12.9755L18.2308 12.4384C17.9362 12.7256 17.8018 13.1394 17.8714 13.545L18.6106 13.4181L19.3498 13.2912C19.3637 13.3723 19.3368 13.4551 19.2779 13.5125L18.7544 12.9755ZM21.1302 9.53647L21.0223 10.2787C20.8173 10.2489 20.7354 9.9969 20.8838 9.85226L21.4073 10.3893L21.9308 10.9264C22.6727 10.2032 22.2633 8.94324 21.238 8.79427L21.1302 9.53647ZM17.0881 8.73033L16.4155 9.06224C16.5976 9.43118 16.9495 9.68691 17.3567 9.74606L17.4645 9.00386L17.5724 8.26165C17.6538 8.27348 17.7242 8.32463 17.7606 8.39842L17.0881 8.73033ZM14.5518 5.40823L15.2244 5.74014C15.1327 5.92596 14.8677 5.92596 14.776 5.74014L15.4486 5.40823L16.1211 5.07632C15.6626 4.14723 14.3378 4.14724 13.8793 5.07632L14.5518 5.40823ZM12.9123 8.73036L12.2398 8.39845C12.2762 8.32467 12.3466 8.27353 12.428 8.26169L12.5359 9.00388L12.6438 9.74608C13.0509 9.68688 13.4028 9.43117 13.5849 9.06227L12.9123 8.73036Z" fill="#753D8F"/>
</svg>
