<svg width="17" height="17" viewBox="0 0 17 17" fill="none" xmlns="http://www.w3.org/2000/svg">
<mask id="path-1-inside-1_412_154" fill="white">
<path d="M7.56053 1.06063C7.56054 0.646445 7.89628 0.310755 8.31045 0.31071C8.72467 0.31071 9.06037 0.646417 9.06037 1.06063L9.05968 7.56063H15.5604C15.9746 7.56063 16.3102 7.89637 16.3103 8.31055C16.3103 8.72476 15.9746 9.06047 15.5604 9.06047H9.05968L9.06037 15.5605C9.06037 15.9747 8.72467 16.3104 8.31045 16.3104C7.89628 16.3103 7.56053 15.9746 7.56053 15.5605L7.55984 9.06047H1.06054C0.646366 9.06042 0.310618 8.72473 0.310618 8.31055C0.310666 7.8964 0.646395 7.56067 1.06054 7.56063L7.55984 7.56063L7.56053 1.06063Z"/>
</mask>
<path d="M7.56053 1.06063C7.56054 0.646445 7.89628 0.310755 8.31045 0.31071C8.72467 0.31071 9.06037 0.646417 9.06037 1.06063L9.05968 7.56063H15.5604C15.9746 7.56063 16.3102 7.89637 16.3103 8.31055C16.3103 8.72476 15.9746 9.06047 15.5604 9.06047H9.05968L9.06037 15.5605C9.06037 15.9747 8.72467 16.3104 8.31045 16.3104C7.89628 16.3103 7.56053 15.9746 7.56053 15.5605L7.55984 9.06047H1.06054C0.646366 9.06042 0.310618 8.72473 0.310618 8.31055C0.310666 7.8964 0.646395 7.56067 1.06054 7.56063L7.55984 7.56063L7.56053 1.06063Z" fill="white"/>
<path d="M7.56053 1.06063L8.56053 1.06074L8.56053 1.06063L7.56053 1.06063ZM8.31045 0.31071L8.31045 -0.68929L8.31035 -0.68929L8.31045 0.31071ZM9.06037 1.06063L10.0604 1.06074L10.0604 1.06063L9.06037 1.06063ZM9.05968 7.56063L8.05968 7.56052L8.05958 8.56063H9.05968V7.56063ZM15.5604 7.56063L15.5604 6.56063L15.5604 6.56063L15.5604 7.56063ZM16.3103 8.31055L17.3103 8.31055L17.3103 8.31043L16.3103 8.31055ZM15.5604 9.06047L15.5604 10.0605L15.5604 10.0605L15.5604 9.06047ZM9.05968 9.06047V8.06047L8.05958 8.06047L8.05968 9.06057L9.05968 9.06047ZM9.06037 15.5605L10.0604 15.5605L10.0604 15.5604L9.06037 15.5605ZM8.31045 16.3104L8.31035 17.3104H8.31045V16.3104ZM7.56053 15.5605L8.56053 15.5605L8.56053 15.5604L7.56053 15.5605ZM7.55984 9.06047L8.55984 9.06036L8.55974 8.06047L7.55984 8.06047V9.06047ZM1.06054 9.06047L1.06042 10.0605H1.06054V9.06047ZM0.310618 8.31055L-0.689382 8.31043V8.31055H0.310618ZM1.06054 7.56063L1.06054 6.56063L1.06042 6.56063L1.06054 7.56063ZM7.55984 7.56063L7.55984 8.56063L8.55974 8.56063L8.55984 7.56073L7.55984 7.56063ZM7.56053 1.06063L8.56053 1.06063C8.56053 1.19884 8.44848 1.3107 8.31056 1.31071L8.31045 0.31071L8.31035 -0.68929C7.34408 -0.689184 6.56054 0.0940515 6.56053 1.06063L7.56053 1.06063ZM8.31045 0.31071V1.31071C8.17238 1.31071 8.06037 1.1987 8.06037 1.06063L9.06037 1.06063L10.0604 1.06063C10.0604 0.0941324 9.27695 -0.68929 8.31045 -0.68929L8.31045 0.31071ZM9.06037 1.06063L8.06037 1.06052L8.05968 7.56052L9.05968 7.56063L10.0597 7.56073L10.0604 1.06074L9.06037 1.06063ZM9.05968 7.56063V8.56063H15.5604V7.56063L15.5604 6.56063L9.05968 6.56063V7.56063ZM15.5604 7.56063L15.5604 8.56063C15.4222 8.56063 15.3103 8.44857 15.3103 8.31066L16.3103 8.31055L17.3103 8.31043C17.3102 7.34418 16.527 6.56063 15.5604 6.56063L15.5604 7.56063ZM16.3103 8.31055H15.3103C15.3103 8.17247 15.4223 8.06047 15.5604 8.06047L15.5604 9.06047L15.5604 10.0605C16.5269 10.0605 17.3103 9.27705 17.3103 8.31055H16.3103ZM15.5604 9.06047V8.06047H9.05968V9.06047L9.05968 10.0605L15.5604 10.0605V9.06047ZM9.05968 9.06047L8.05968 9.06057L8.06037 15.5606L9.06037 15.5605L10.0604 15.5604L10.0597 9.06036L9.05968 9.06047ZM9.06037 15.5605H8.06037C8.06037 15.4224 8.17238 15.3104 8.31045 15.3104L8.31045 16.3104V17.3104C9.27695 17.3104 10.0604 16.527 10.0604 15.5605H9.06037ZM8.31045 16.3104L8.31056 15.3104C8.44848 15.3104 8.56053 15.4223 8.56053 15.5605H7.56053L6.56053 15.5605C6.56053 16.527 7.34408 17.3103 8.31035 17.3104L8.31045 16.3104ZM7.56053 15.5605L8.56053 15.5604L8.55984 9.06036L7.55984 9.06047L6.55984 9.06057L6.56053 15.5606L7.56053 15.5605ZM7.55984 9.06047V8.06047H1.06054L1.06054 9.06047V10.0605L7.55984 10.0605V9.06047ZM1.06054 9.06047L1.06065 8.06047C1.19856 8.06048 1.31062 8.17233 1.31062 8.31055H0.310618H-0.689382C-0.689382 9.27713 0.0941711 10.0604 1.06042 10.0605L1.06054 9.06047ZM0.310618 8.31055L1.31062 8.31066C1.3106 8.44871 1.19871 8.56061 1.06065 8.56063L1.06054 7.56063L1.06042 6.56063C0.094085 6.56074 -0.68927 7.34409 -0.689382 8.31043L0.310618 8.31055ZM1.06054 7.56063V8.56063L7.55984 8.56063L7.55984 7.56063V6.56063L1.06054 6.56063L1.06054 7.56063ZM7.55984 7.56063L8.55984 7.56073L8.56053 1.06074L7.56053 1.06063L6.56053 1.06052L6.55984 7.56052L7.55984 7.56063Z" fill="white" mask="url(#path-1-inside-1_412_154)"/>
</svg>
